# xmcd
#
# Track frame offsets: 
#        150
#        16427
#        34665
#        50846
#        67712
#        82901
#        105014
#        122241
#        138025
#        159900
#        174963
#        191022
#        213457
#        232171
#        249217
#        268551
#        285228
#        303877
#        321125
#        337751
#
# Disc length: 4752 seconds
#
# Revision: 0
# Processed by: cddbd v1.5.2PL0 Copyright (c) Steve Scherf et al.
# Submitted via: ExactAudioCopy v1.0b1
#
DISCID=f9128e14
DTITLE=Various Artist - New Country Collection Vol.5 [Disc 1]
DYEAR=2012
DGENRE=Country
TTITLE0=LeAnn Rimes - Can't Fight The Moonlight
TTITLE1=Lonestar - Amazed
TTITLE2=Martina McBride - It's My Time
TTITLE3=Restless Heart - When She Cries
TTITLE4=Alan Jackson - Thank God For The Radio
TTITLE5=Tim McGraw - Please Remember Me
TTITLE6=Sara Evans - Why Should I Care
TTITLE7=Chuck Wicks - All I Ever Wanted
TTITLE8=The Cactus Jacks - Tennessee
TTITLE9=Brooks and Dunn - Boot Scootin' Boogie
TTITLE10=Doug Supernaw - Reno
TTITLE11=Dolly Parton - Light Of A Clear Blue Morning
TTITLE12=Bryan White - God Gave Me You
TTITLE13=Jason Michael Carroll - Let It Rain
TTITLE14=Jessica Andrews - Who I Am
TTITLE15=The Buffalo Club - If She Don't Love You
TTITLE16=John Anderson - Bend It Until It Breaks
TTITLE17=Travis Tritt - Anymore
TTITLE18=Sawyer Brown - Treat Her Right
TTITLE19=Tanya Tucker - Two Sparrows In A Hurricane
EXTD=
EXTT0=
EXTT1=
EXTT2=
EXTT3=
EXTT4=
EXTT5=
EXTT6=
EXTT7=
EXTT8=
EXTT9=
EXTT10=
EXTT11=
EXTT12=
EXTT13=
EXTT14=
EXTT15=
EXTT16=
EXTT17=
EXTT18=
EXTT19=
PLAYORDER=
